<mxfile host="app.diagrams.net" modified="2023-12-19T07:17:59.535Z" agent="Mozilla/5.0 (Windows NT 10.0; Win64; x64) AppleWebKit/537.36 (KHTML, like Gecko) Chrome/120.0.0.0 Safari/537.36" etag="5fW2AMHQ7VsyQKcUMr3u" version="22.1.11" type="device">
  <diagram name="Page-1" id="OUrcoNJuGmtKbg8f6oHz">
    <mxGraphModel dx="1588" dy="892" grid="1" gridSize="10" guides="1" tooltips="1" connect="1" arrows="1" fold="1" page="1" pageScale="1" pageWidth="827" pageHeight="1169" math="0" shadow="0">
      <root>
        <mxCell id="0" />
        <mxCell id="1" parent="0" />
        <mxCell id="McP27k4HqZeNWrcmT65w-11" style="edgeStyle=orthogonalEdgeStyle;rounded=0;orthogonalLoop=1;jettySize=auto;html=1;exitX=0.25;exitY=0;exitDx=0;exitDy=0;entryX=0.5;entryY=1;entryDx=0;entryDy=0;" edge="1" parent="1" source="McP27k4HqZeNWrcmT65w-1" target="McP27k4HqZeNWrcmT65w-8">
          <mxGeometry relative="1" as="geometry" />
        </mxCell>
        <mxCell id="McP27k4HqZeNWrcmT65w-13" style="edgeStyle=orthogonalEdgeStyle;rounded=0;orthogonalLoop=1;jettySize=auto;html=1;exitX=0.5;exitY=0;exitDx=0;exitDy=0;entryX=0.5;entryY=1;entryDx=0;entryDy=0;" edge="1" parent="1" source="McP27k4HqZeNWrcmT65w-1" target="McP27k4HqZeNWrcmT65w-12">
          <mxGeometry relative="1" as="geometry" />
        </mxCell>
        <mxCell id="McP27k4HqZeNWrcmT65w-15" style="edgeStyle=orthogonalEdgeStyle;rounded=0;orthogonalLoop=1;jettySize=auto;html=1;exitX=0;exitY=0;exitDx=0;exitDy=0;entryX=0.5;entryY=1;entryDx=0;entryDy=0;" edge="1" parent="1" source="McP27k4HqZeNWrcmT65w-1">
          <mxGeometry relative="1" as="geometry">
            <mxPoint x="191" y="216" as="targetPoint" />
          </mxGeometry>
        </mxCell>
        <mxCell id="McP27k4HqZeNWrcmT65w-1" value="Participants(user)" style="whiteSpace=wrap;html=1;align=center;" vertex="1" parent="1">
          <mxGeometry x="281" y="296" width="124" height="40" as="geometry" />
        </mxCell>
        <mxCell id="McP27k4HqZeNWrcmT65w-27" style="edgeStyle=orthogonalEdgeStyle;rounded=0;orthogonalLoop=1;jettySize=auto;html=1;exitX=0.75;exitY=1;exitDx=0;exitDy=0;entryX=0.5;entryY=0;entryDx=0;entryDy=0;" edge="1" parent="1" source="McP27k4HqZeNWrcmT65w-2" target="McP27k4HqZeNWrcmT65w-22">
          <mxGeometry relative="1" as="geometry" />
        </mxCell>
        <mxCell id="McP27k4HqZeNWrcmT65w-2" value="Batch" style="whiteSpace=wrap;html=1;align=center;" vertex="1" parent="1">
          <mxGeometry x="287" y="506" width="100" height="40" as="geometry" />
        </mxCell>
        <mxCell id="McP27k4HqZeNWrcmT65w-70" style="edgeStyle=orthogonalEdgeStyle;rounded=0;orthogonalLoop=1;jettySize=auto;html=1;exitX=0;exitY=0;exitDx=0;exitDy=0;entryX=0.5;entryY=1;entryDx=0;entryDy=0;" edge="1" parent="1" source="McP27k4HqZeNWrcmT65w-6" target="McP27k4HqZeNWrcmT65w-68">
          <mxGeometry relative="1" as="geometry" />
        </mxCell>
        <mxCell id="McP27k4HqZeNWrcmT65w-72" style="edgeStyle=orthogonalEdgeStyle;rounded=0;orthogonalLoop=1;jettySize=auto;html=1;exitX=0.5;exitY=0;exitDx=0;exitDy=0;entryX=0.5;entryY=1;entryDx=0;entryDy=0;" edge="1" parent="1" source="McP27k4HqZeNWrcmT65w-6" target="McP27k4HqZeNWrcmT65w-71">
          <mxGeometry relative="1" as="geometry" />
        </mxCell>
        <mxCell id="McP27k4HqZeNWrcmT65w-74" style="edgeStyle=orthogonalEdgeStyle;rounded=0;orthogonalLoop=1;jettySize=auto;html=1;exitX=0.75;exitY=0;exitDx=0;exitDy=0;entryX=0.5;entryY=1;entryDx=0;entryDy=0;" edge="1" parent="1" source="McP27k4HqZeNWrcmT65w-6" target="McP27k4HqZeNWrcmT65w-73">
          <mxGeometry relative="1" as="geometry" />
        </mxCell>
        <mxCell id="McP27k4HqZeNWrcmT65w-77" style="edgeStyle=orthogonalEdgeStyle;rounded=0;orthogonalLoop=1;jettySize=auto;html=1;exitX=1;exitY=0.5;exitDx=0;exitDy=0;entryX=0.5;entryY=1;entryDx=0;entryDy=0;" edge="1" parent="1" source="McP27k4HqZeNWrcmT65w-6" target="McP27k4HqZeNWrcmT65w-75">
          <mxGeometry relative="1" as="geometry" />
        </mxCell>
        <mxCell id="McP27k4HqZeNWrcmT65w-6" value="Payment" style="whiteSpace=wrap;html=1;align=center;" vertex="1" parent="1">
          <mxGeometry x="766" y="176" width="100" height="40" as="geometry" />
        </mxCell>
        <mxCell id="McP27k4HqZeNWrcmT65w-8" value="name" style="ellipse;whiteSpace=wrap;html=1;align=center;" vertex="1" parent="1">
          <mxGeometry x="261" y="176" width="100" height="40" as="geometry" />
        </mxCell>
        <mxCell id="McP27k4HqZeNWrcmT65w-12" value="Age" style="ellipse;whiteSpace=wrap;html=1;align=center;" vertex="1" parent="1">
          <mxGeometry x="381" y="176" width="100" height="40" as="geometry" />
        </mxCell>
        <mxCell id="McP27k4HqZeNWrcmT65w-20" value="Participation" style="shape=rhombus;perimeter=rhombusPerimeter;whiteSpace=wrap;html=1;align=center;" vertex="1" parent="1">
          <mxGeometry x="475" y="326" width="106" height="80" as="geometry" />
        </mxCell>
        <mxCell id="McP27k4HqZeNWrcmT65w-22" value="Time slots" style="ellipse;whiteSpace=wrap;html=1;align=center;" vertex="1" parent="1">
          <mxGeometry x="311" y="606" width="100" height="40" as="geometry" />
        </mxCell>
        <mxCell id="McP27k4HqZeNWrcmT65w-23" value="Participant ID" style="ellipse;whiteSpace=wrap;html=1;align=center;fontStyle=4;" vertex="1" parent="1">
          <mxGeometry x="141" y="174" width="100" height="40" as="geometry" />
        </mxCell>
        <mxCell id="McP27k4HqZeNWrcmT65w-26" value="" style="edgeStyle=orthogonalEdgeStyle;rounded=0;orthogonalLoop=1;jettySize=auto;html=1;exitX=0.25;exitY=1;exitDx=0;exitDy=0;" edge="1" parent="1" source="McP27k4HqZeNWrcmT65w-2" target="McP27k4HqZeNWrcmT65w-24">
          <mxGeometry relative="1" as="geometry">
            <mxPoint x="312" y="546" as="sourcePoint" />
            <mxPoint x="241" y="616" as="targetPoint" />
          </mxGeometry>
        </mxCell>
        <mxCell id="McP27k4HqZeNWrcmT65w-24" value="Batch ID" style="ellipse;whiteSpace=wrap;html=1;align=center;fontStyle=4;" vertex="1" parent="1">
          <mxGeometry x="187" y="606" width="100" height="40" as="geometry" />
        </mxCell>
        <mxCell id="McP27k4HqZeNWrcmT65w-37" value="Enrolment ID" style="ellipse;whiteSpace=wrap;html=1;align=center;fontStyle=4;" vertex="1" parent="1">
          <mxGeometry x="618" y="507" width="100" height="40" as="geometry" />
        </mxCell>
        <mxCell id="McP27k4HqZeNWrcmT65w-39" value="&lt;span style=&quot;border-bottom: 1px dotted&quot;&gt;Batch ID&lt;/span&gt;" style="ellipse;whiteSpace=wrap;html=1;align=center;" vertex="1" parent="1">
          <mxGeometry x="702" y="547" width="100" height="40" as="geometry" />
        </mxCell>
        <mxCell id="McP27k4HqZeNWrcmT65w-41" value="&lt;span style=&quot;border-bottom: 1px dotted&quot;&gt;Participants ID&lt;/span&gt;" style="ellipse;whiteSpace=wrap;html=1;align=center;" vertex="1" parent="1">
          <mxGeometry x="812" y="547" width="100" height="40" as="geometry" />
        </mxCell>
        <mxCell id="McP27k4HqZeNWrcmT65w-42" value="Enrollment Date" style="ellipse;whiteSpace=wrap;html=1;align=center;" vertex="1" parent="1">
          <mxGeometry x="921" y="526" width="100" height="40" as="geometry" />
        </mxCell>
        <mxCell id="McP27k4HqZeNWrcmT65w-44" style="edgeStyle=orthogonalEdgeStyle;rounded=0;orthogonalLoop=1;jettySize=auto;html=1;exitX=0;exitY=1;exitDx=0;exitDy=0;entryX=1;entryY=0.5;entryDx=0;entryDy=0;" edge="1" parent="1" source="McP27k4HqZeNWrcmT65w-43" target="McP27k4HqZeNWrcmT65w-37">
          <mxGeometry relative="1" as="geometry" />
        </mxCell>
        <mxCell id="McP27k4HqZeNWrcmT65w-46" style="edgeStyle=orthogonalEdgeStyle;rounded=0;orthogonalLoop=1;jettySize=auto;html=1;exitX=0.5;exitY=1;exitDx=0;exitDy=0;entryX=1;entryY=0;entryDx=0;entryDy=0;" edge="1" parent="1" source="McP27k4HqZeNWrcmT65w-43" target="McP27k4HqZeNWrcmT65w-39">
          <mxGeometry relative="1" as="geometry" />
        </mxCell>
        <mxCell id="McP27k4HqZeNWrcmT65w-48" style="edgeStyle=orthogonalEdgeStyle;rounded=0;orthogonalLoop=1;jettySize=auto;html=1;exitX=1;exitY=1;exitDx=0;exitDy=0;entryX=0.5;entryY=0;entryDx=0;entryDy=0;" edge="1" parent="1" source="McP27k4HqZeNWrcmT65w-43" target="McP27k4HqZeNWrcmT65w-42">
          <mxGeometry relative="1" as="geometry">
            <mxPoint x="912" y="527" as="targetPoint" />
          </mxGeometry>
        </mxCell>
        <mxCell id="McP27k4HqZeNWrcmT65w-43" value="Enrollment" style="whiteSpace=wrap;html=1;align=center;" vertex="1" parent="1">
          <mxGeometry x="762" y="447" width="100" height="40" as="geometry" />
        </mxCell>
        <mxCell id="McP27k4HqZeNWrcmT65w-47" style="edgeStyle=orthogonalEdgeStyle;rounded=0;orthogonalLoop=1;jettySize=auto;html=1;exitX=0.5;exitY=1;exitDx=0;exitDy=0;entryX=0.279;entryY=0.029;entryDx=0;entryDy=0;entryPerimeter=0;" edge="1" parent="1" source="McP27k4HqZeNWrcmT65w-43" target="McP27k4HqZeNWrcmT65w-41">
          <mxGeometry relative="1" as="geometry" />
        </mxCell>
        <mxCell id="McP27k4HqZeNWrcmT65w-55" value="Batch Enrollment" style="shape=rhombus;perimeter=rhombusPerimeter;whiteSpace=wrap;html=1;align=center;" vertex="1" parent="1">
          <mxGeometry x="465" y="447" width="126" height="70" as="geometry" />
        </mxCell>
        <mxCell id="McP27k4HqZeNWrcmT65w-58" value="Payment of &lt;br&gt;Enrolled Participants" style="shape=rhombus;perimeter=rhombusPerimeter;whiteSpace=wrap;html=1;align=center;" vertex="1" parent="1">
          <mxGeometry x="728" y="276.08000000000004" width="173" height="100" as="geometry" />
        </mxCell>
        <mxCell id="McP27k4HqZeNWrcmT65w-59" value="" style="endArrow=none;html=1;rounded=0;exitX=1;exitY=0.5;exitDx=0;exitDy=0;entryX=0;entryY=0;entryDx=0;entryDy=0;" edge="1" parent="1" source="McP27k4HqZeNWrcmT65w-1" target="McP27k4HqZeNWrcmT65w-20">
          <mxGeometry relative="1" as="geometry">
            <mxPoint x="631" y="406" as="sourcePoint" />
            <mxPoint x="791" y="406" as="targetPoint" />
          </mxGeometry>
        </mxCell>
        <mxCell id="McP27k4HqZeNWrcmT65w-60" value="1" style="resizable=0;html=1;whiteSpace=wrap;align=right;verticalAlign=bottom;" connectable="0" vertex="1" parent="McP27k4HqZeNWrcmT65w-59">
          <mxGeometry x="1" relative="1" as="geometry" />
        </mxCell>
        <mxCell id="McP27k4HqZeNWrcmT65w-61" value="" style="endArrow=none;html=1;rounded=0;entryX=1;entryY=0.5;entryDx=0;entryDy=0;" edge="1" parent="1" target="McP27k4HqZeNWrcmT65w-20">
          <mxGeometry relative="1" as="geometry">
            <mxPoint x="811" y="446" as="sourcePoint" />
            <mxPoint x="791" y="406" as="targetPoint" />
          </mxGeometry>
        </mxCell>
        <mxCell id="McP27k4HqZeNWrcmT65w-62" value="N" style="resizable=0;html=1;whiteSpace=wrap;align=right;verticalAlign=bottom;" connectable="0" vertex="1" parent="McP27k4HqZeNWrcmT65w-61">
          <mxGeometry x="1" relative="1" as="geometry" />
        </mxCell>
        <mxCell id="McP27k4HqZeNWrcmT65w-63" value="" style="endArrow=none;html=1;rounded=0;entryX=1;entryY=0.5;entryDx=0;entryDy=0;exitX=0;exitY=0.5;exitDx=0;exitDy=0;" edge="1" parent="1" source="McP27k4HqZeNWrcmT65w-43" target="McP27k4HqZeNWrcmT65w-55">
          <mxGeometry relative="1" as="geometry">
            <mxPoint x="783" y="506" as="sourcePoint" />
            <mxPoint x="553" y="426" as="targetPoint" />
          </mxGeometry>
        </mxCell>
        <mxCell id="McP27k4HqZeNWrcmT65w-64" value="N" style="resizable=0;html=1;whiteSpace=wrap;align=right;verticalAlign=bottom;" connectable="0" vertex="1" parent="McP27k4HqZeNWrcmT65w-63">
          <mxGeometry x="1" relative="1" as="geometry" />
        </mxCell>
        <mxCell id="McP27k4HqZeNWrcmT65w-65" value="" style="endArrow=none;html=1;rounded=0;exitX=1;exitY=0.5;exitDx=0;exitDy=0;entryX=0;entryY=0.5;entryDx=0;entryDy=0;" edge="1" parent="1" source="McP27k4HqZeNWrcmT65w-2" target="McP27k4HqZeNWrcmT65w-55">
          <mxGeometry relative="1" as="geometry">
            <mxPoint x="378" y="406" as="sourcePoint" />
            <mxPoint x="475" y="436" as="targetPoint" />
          </mxGeometry>
        </mxCell>
        <mxCell id="McP27k4HqZeNWrcmT65w-66" value="1" style="resizable=0;html=1;whiteSpace=wrap;align=right;verticalAlign=bottom;" connectable="0" vertex="1" parent="McP27k4HqZeNWrcmT65w-65">
          <mxGeometry x="1" relative="1" as="geometry" />
        </mxCell>
        <mxCell id="McP27k4HqZeNWrcmT65w-68" value="Payment ID" style="ellipse;whiteSpace=wrap;html=1;align=center;fontStyle=4;" vertex="1" parent="1">
          <mxGeometry x="650" y="76" width="100" height="40" as="geometry" />
        </mxCell>
        <mxCell id="McP27k4HqZeNWrcmT65w-71" value="&lt;span style=&quot;border-bottom: 1px dotted&quot;&gt;Enrollment ID&lt;/span&gt;" style="ellipse;whiteSpace=wrap;html=1;align=center;" vertex="1" parent="1">
          <mxGeometry x="766" y="76" width="100" height="40" as="geometry" />
        </mxCell>
        <mxCell id="McP27k4HqZeNWrcmT65w-73" value="Amount" style="ellipse;whiteSpace=wrap;html=1;align=center;" vertex="1" parent="1">
          <mxGeometry x="879" y="76" width="100" height="40" as="geometry" />
        </mxCell>
        <mxCell id="McP27k4HqZeNWrcmT65w-75" value="Payment Date" style="ellipse;whiteSpace=wrap;html=1;align=center;" vertex="1" parent="1">
          <mxGeometry x="999" y="76" width="100" height="40" as="geometry" />
        </mxCell>
        <mxCell id="McP27k4HqZeNWrcmT65w-78" value="" style="endArrow=none;html=1;rounded=0;entryX=0.5;entryY=0;entryDx=0;entryDy=0;exitX=0.5;exitY=1;exitDx=0;exitDy=0;" edge="1" parent="1" source="McP27k4HqZeNWrcmT65w-6" target="McP27k4HqZeNWrcmT65w-58">
          <mxGeometry relative="1" as="geometry">
            <mxPoint x="1086" y="326" as="sourcePoint" />
            <mxPoint x="856" y="246" as="targetPoint" />
          </mxGeometry>
        </mxCell>
        <mxCell id="McP27k4HqZeNWrcmT65w-79" value="N" style="resizable=0;html=1;whiteSpace=wrap;align=right;verticalAlign=bottom;" connectable="0" vertex="1" parent="McP27k4HqZeNWrcmT65w-78">
          <mxGeometry x="1" relative="1" as="geometry">
            <mxPoint x="-2" y="10" as="offset" />
          </mxGeometry>
        </mxCell>
        <mxCell id="McP27k4HqZeNWrcmT65w-80" value="" style="endArrow=none;html=1;rounded=0;entryX=0.5;entryY=1;entryDx=0;entryDy=0;" edge="1" parent="1" target="McP27k4HqZeNWrcmT65w-58">
          <mxGeometry relative="1" as="geometry">
            <mxPoint x="811" y="446" as="sourcePoint" />
            <mxPoint x="948" y="436" as="targetPoint" />
          </mxGeometry>
        </mxCell>
        <mxCell id="McP27k4HqZeNWrcmT65w-81" value="1" style="resizable=0;html=1;whiteSpace=wrap;align=right;verticalAlign=bottom;" connectable="0" vertex="1" parent="McP27k4HqZeNWrcmT65w-80">
          <mxGeometry x="1" relative="1" as="geometry" />
        </mxCell>
      </root>
    </mxGraphModel>
  </diagram>
</mxfile>
